<?xml version="1.0" standalone="no"?>
<!DOCTYPE svg PUBLIC "-//W3C//DTD SVG 20010904//EN"
 "http://www.w3.org/TR/2001/REC-SVG-20010904/DTD/svg10.dtd">
<svg version="1.0" xmlns="http://www.w3.org/2000/svg"
 width="358.000000pt" height="358.000000pt" viewBox="0 0 358.000000 358.000000"
 preserveAspectRatio="xMidYMid meet">
<metadata>
Created by potrace 1.14, written by Peter Selinger 2001-2017
</metadata>
<g transform="translate(0.000000,358.000000) scale(0.100000,-0.100000)"
fill="#000000" stroke="none">
<path d="M1638 3575 c-1 -2 -28 -6 -58 -9 -104 -10 -287 -49 -352 -75 -13 -5
-61 -24 -108 -42 -104 -40 -287 -138 -355 -191 -92 -70 -169 -134 -206 -169
-41 -39 -159 -168 -177 -194 -11 -15 -66 -88 -75 -100 -36 -46 -118 -199 -170
-315 -31 -71 -90 -261 -103 -337 -11 -65 -14 -82 -21 -133 -9 -68 -10 -342 -1
-431 39 -374 226 -757 507 -1040 212 -213 439 -353 716 -444 192 -63 338 -86
560 -87 154 -1 173 1 424 48 13 3 31 9 40 13 9 5 30 11 48 14 41 8 202 71 277
109 198 100 390 249 551 428 52 58 165 214 165 228 0 5 3 12 8 14 18 8 116
200 155 305 30 84 73 238 82 303 4 24 8 47 10 51 7 10 18 188 19 274 0 82 -11
243 -18 254 -2 3 -7 29 -10 56 -15 110 -78 313 -134 434 -30 64 -145 262 -164
283 -7 7 -25 31 -41 54 -15 22 -46 61 -70 86 -23 25 -56 61 -73 79 -111 121
-319 272 -489 357 -133 66 -349 135 -495 158 -19 3 -46 8 -60 10 -29 6 -376
14 -382 9z"/>
</g>
</svg>
